<svg width="28" height="28" viewBox="0 0 28 28" fill="none" xmlns="http://www.w3.org/2000/svg">
<g clip-path="url(#clip0_7_130)">
<path d="M14.0123 6.86642C13.7661 6.86642 13.5225 6.87898 13.2826 6.90356C13.0426 6.92814 12.806 6.96456 12.5734 7.01237C12.3408 7.06018 12.1123 7.11938 11.8884 7.18926L11.2313 7.43055L10.6056 7.73267L10.0152 8.09192L9.46356 8.50454L8.9545 8.96695L8.49165 9.47556L8.07857 10.0266L7.71887 10.6165L7.41658 11.2414C7.32571 11.4552 7.24489 11.6743 7.17492 11.898C7.10496 12.1217 7.04576 12.3501 6.99786 12.5824C6.94995 12.8148 6.91354 13.0511 6.88887 13.2909C6.8642 13.5307 6.85182 13.7739 6.85182 14.0199C6.85182 14.2659 6.86438 14.5091 6.88887 14.7489C6.91322 14.9868 6.94959 15.2233 6.99786 15.4575C7.04576 15.6907 7.10496 15.9182 7.17492 16.1419C7.24489 16.3656 7.32562 16.5846 7.41658 16.7985L7.71887 17.4234L8.07857 18.0132L8.49165 18.5643L8.9545 19.0729L9.46356 19.5354L10.0152 19.948L10.6056 20.3072L11.2313 20.6093L11.8884 20.8506L12.5734 21.0275C12.8078 21.0757 13.0445 21.1121 13.2826 21.1364C13.525 21.1612 13.7686 21.1735 14.0123 21.1735C14.2585 21.1735 14.5021 21.1609 14.7419 21.1364C14.98 21.1121 15.2167 21.0757 15.4511 21.0275L16.1362 20.8506L16.7933 20.6093L17.4189 20.3072L18.0094 19.948L18.561 19.5354L19.0702 19.0729L19.533 18.5643L19.9461 18.0132L20.3058 17.4234L20.6081 16.7985L20.8498 16.1419C20.9197 15.9182 20.9789 15.6898 21.0268 15.4575L21.1358 14.7488C21.1604 14.509 21.173 14.2658 21.173 14.0198C21.173 13.7739 21.1604 13.5306 21.1358 13.2908C21.1115 13.053 21.0751 12.8165 21.0268 12.5824C20.9789 12.3491 20.9197 12.1217 20.8498 11.8979L20.6081 11.2413L20.3058 10.6164L19.9461 10.0265L19.533 9.47547L19.0702 8.96686L18.561 8.50445L18.0094 8.09183L17.4189 7.73258L16.7933 7.43046L16.1362 7.18917L15.4511 7.01228L14.7419 6.90347C14.4995 6.87871 14.256 6.86632 14.0123 6.86633V6.86642ZM14.0123 9.33553C14.1751 9.33553 14.3358 9.34361 14.494 9.35957L14.9604 9.43017L15.411 9.54499L15.8425 9.70169L16.2527 9.89814L16.6384 10.1318L16.999 10.4006L17.3314 10.7022L17.6333 11.0343L17.9024 11.3945L18.1363 11.7808L18.3328 12.1907C18.3918 12.331 18.4442 12.4748 18.4897 12.6218C18.5353 12.7688 18.5736 12.9191 18.6045 13.0721C18.6355 13.2252 18.6584 13.3809 18.6751 13.539L18.6992 14.0204C18.6992 14.183 18.6911 14.3435 18.6751 14.5018C18.6592 14.66 18.6357 14.8157 18.6045 14.9687C18.5734 15.1216 18.535 15.2719 18.4897 15.419L18.3328 15.8501L18.1363 16.26L17.9024 16.6462L17.6333 17.0065L17.3314 17.3386L16.999 17.6401L16.6384 17.909L16.2527 18.1427L15.8425 18.3391L15.411 18.4958L14.9604 18.6106L14.494 18.6811C14.3339 18.6972 14.1731 18.7052 14.0122 18.7052C13.8513 18.7052 13.6905 18.6972 13.5303 18.6811L13.0639 18.6106C12.9108 18.5796 12.7604 18.5412 12.6132 18.4958L12.1818 18.3391L11.7716 18.1427L11.3859 17.909L11.0253 17.6401L10.6928 17.3386L10.391 17.0065L10.1219 16.6462L9.88793 16.26L9.69149 15.8501L9.53451 15.419L9.41969 14.9687L9.3491 14.5018C9.33305 14.3418 9.32502 14.1811 9.32506 14.0204C9.32502 13.8596 9.33305 13.699 9.3491 13.539C9.36498 13.3809 9.38857 13.2251 9.41969 13.0721C9.45051 12.9202 9.48886 12.77 9.5346 12.6219L9.69158 12.1908L9.88802 11.7809L10.122 11.3946L10.3911 11.0344L10.6929 10.7023L11.0253 10.4007L11.3859 10.1319L11.7717 9.89823L12.1819 9.70178C12.323 9.64249 12.4671 9.59019 12.6134 9.54508L13.0641 9.43026C13.2172 9.39922 13.3731 9.37554 13.5305 9.35966C13.6906 9.34362 13.8515 9.3356 14.0124 9.33562L14.0123 9.33553Z" fill="white"/>
<path d="M21.4633 4.83142C21.4064 4.83143 21.3496 4.83431 21.293 4.84003C21.2364 4.84575 21.1802 4.85431 21.1245 4.86569C21.0688 4.87705 21.0136 4.89121 20.9593 4.90811C20.905 4.92503 20.8516 4.94467 20.7992 4.96696C20.7469 4.98927 20.6956 5.01421 20.6457 5.04168C20.5958 5.06909 20.5473 5.099 20.5004 5.13129C20.4535 5.16362 20.4082 5.19829 20.3647 5.23517C20.3212 5.27201 20.2796 5.31102 20.24 5.35205C20.2004 5.3931 20.1629 5.43612 20.1275 5.48095C20.0922 5.52578 20.0591 5.57236 20.0284 5.62052C19.9977 5.66864 19.9694 5.71828 19.9436 5.76925C19.9178 5.82025 19.8946 5.87252 19.8739 5.92586C19.8534 5.9792 19.8354 6.03354 19.8202 6.08867C19.805 6.1438 19.7926 6.19967 19.7829 6.25605C19.7732 6.31242 19.7664 6.36925 19.7624 6.42631C19.7595 6.46673 19.7581 6.50724 19.7581 6.54776C19.7581 6.60501 19.7609 6.66222 19.7666 6.71918C19.7723 6.77611 19.7808 6.83273 19.7921 6.88881C19.8033 6.94488 19.8174 7.00036 19.8342 7.05502C19.851 7.1097 19.8705 7.1635 19.8927 7.21621C19.9148 7.26895 19.9396 7.32053 19.9669 7.37077C19.9941 7.421 20.0239 7.46983 20.056 7.51707C20.0881 7.56428 20.1225 7.60985 20.1591 7.6536C20.1957 7.69738 20.2345 7.73929 20.2753 7.77918C20.3161 7.81904 20.3588 7.85682 20.4034 7.89238C20.4479 7.92797 20.4942 7.96129 20.542 7.99222C20.5899 8.02315 20.6393 8.05165 20.69 8.07761C20.7406 8.10359 20.7925 8.127 20.8455 8.14776C20.8985 8.16849 20.9525 8.18654 21.0072 8.20185C21.062 8.21713 21.1175 8.22964 21.1735 8.23934C21.2296 8.24909 21.286 8.256 21.3427 8.26007C21.3829 8.26293 21.4231 8.26437 21.4634 8.26437C21.5202 8.26439 21.577 8.26154 21.6336 8.25585C21.6902 8.25013 21.7464 8.24157 21.8022 8.23019C21.8579 8.21883 21.913 8.20467 21.9673 8.18777C22.0216 8.17085 22.0751 8.15121 22.1274 8.12892C22.1798 8.10664 22.231 8.08173 22.2809 8.05429C22.3308 8.02685 22.3793 7.99691 22.4262 7.96459C22.4731 7.93229 22.5184 7.89766 22.5619 7.86081C22.6054 7.82393 22.647 7.78489 22.6866 7.74384C22.7262 7.70278 22.7638 7.65976 22.7991 7.61494C22.8344 7.5701 22.8675 7.52352 22.8982 7.47536C22.9289 7.42721 22.9572 7.37754 22.983 7.32655C23.0088 7.27554 23.0321 7.22327 23.0527 7.16993C23.0733 7.1166 23.0912 7.06226 23.1064 7.00712C23.1216 6.95199 23.1341 6.89612 23.1437 6.83974C23.1534 6.78337 23.1602 6.72655 23.1643 6.66949C23.1671 6.62906 23.1686 6.58855 23.1686 6.54803C23.1686 6.49081 23.1657 6.43363 23.1601 6.3767C23.1544 6.31977 23.1459 6.26316 23.1346 6.20708C23.1233 6.151 23.1092 6.09552 23.0924 6.04086C23.0756 5.98618 23.0561 5.93238 23.0339 5.87967C23.0118 5.82694 22.987 5.77535 22.9598 5.72511C22.9325 5.67488 22.9028 5.62605 22.8707 5.57881C22.8385 5.53157 22.8041 5.48597 22.7674 5.4422C22.7308 5.39841 22.6921 5.3565 22.6514 5.31661C22.6106 5.27675 22.5678 5.23897 22.5233 5.20341C22.4787 5.16786 22.4324 5.13457 22.3846 5.10366C22.3367 5.07273 22.2874 5.04423 22.2367 5.01827C22.186 4.99229 22.1341 4.96888 22.0811 4.94812C22.0282 4.92739 21.9742 4.90934 21.9194 4.89403C21.8646 4.87872 21.8091 4.86618 21.7531 4.85645C21.6971 4.84674 21.6406 4.83985 21.5839 4.83582C21.5438 4.83295 21.5035 4.83151 21.4633 4.83151V4.83142Z" fill="white"/>
<path d="M12.6545 0.0252853C11.8757 0.0240295 11.1807 0.0272583 10.5564 0.036049L8.88253 0.0808995C8.38667 0.102428 7.94857 0.130502 7.55532 0.166831C7.35869 0.184951 7.17319 0.205223 6.99738 0.227559C6.83007 0.248646 6.66322 0.2732 6.49693 0.301205C6.33861 0.328115 6.18836 0.357177 6.0443 0.388751C5.90024 0.420326 5.76264 0.454414 5.62988 0.491012C5.5001 0.526799 5.37133 0.566164 5.24372 0.609059C5.11868 0.651219 4.99668 0.69589 4.87621 0.743611C4.63528 0.839053 4.40026 0.946154 4.15825 1.06617C3.97203 1.15857 3.79998 1.25212 3.63655 1.35115C3.47311 1.45018 3.31829 1.55478 3.16669 1.6687C3.01057 1.78659 2.8601 1.91177 2.71576 2.04383C2.56489 2.18125 2.41078 2.33239 2.25066 2.5013C2.04946 2.71237 1.87464 2.90917 1.71945 3.1023C1.64186 3.19882 1.56921 3.29426 1.50076 3.39024C1.43308 3.48483 1.36837 3.58151 1.30674 3.68015C1.24574 3.77793 1.18798 3.8775 1.13272 3.97993C1.0766 4.08414 1.02357 4.18997 0.97368 4.2973C0.8716 4.51653 0.776338 4.75262 0.681255 5.01616C0.610715 5.21099 0.547551 5.40841 0.491896 5.60801C0.435115 5.81199 0.384613 6.02539 0.339583 6.25619C0.294553 6.48699 0.255264 6.73519 0.220729 7.00968C0.183514 7.31056 0.153784 7.61231 0.131566 7.91467C0.10645 8.2471 0.0856395 8.6129 0.0685963 9.02006L0.0282309 10.3738L0.00652319 12.0241L0.000244141 14.0187L0.0186329 16.9194L0.0760415 19.1171L0.120264 19.9755L0.17552 20.6868C0.193233 20.8786 0.215395 21.0699 0.241989 21.2606C0.266208 21.4299 0.292221 21.5781 0.320208 21.7064C0.376995 21.9672 0.444145 22.2256 0.521497 22.481C0.595561 22.7256 0.680259 22.9668 0.775351 23.204C0.86882 23.4364 0.971079 23.6604 1.08231 23.8761C1.19354 24.0917 1.31374 24.2989 1.44291 24.498C1.57208 24.697 1.71022 24.8879 1.85768 25.0706C2.00499 25.2534 2.16166 25.4283 2.32709 25.5948C2.49277 25.7617 2.66751 25.9205 2.85166 26.0713C3.038 26.2239 3.23168 26.3673 3.43203 26.501C3.61798 26.6253 3.80196 26.7392 3.98728 26.8437C4.1726 26.9482 4.35954 27.043 4.55168 27.1292C4.74382 27.2154 4.9408 27.293 5.14657 27.3628C5.35235 27.4325 5.56673 27.4946 5.79332 27.5497C6.0199 27.6048 6.25976 27.6531 6.51362 27.6953C6.76747 27.7374 7.03882 27.7736 7.32873 27.8047C7.61865 27.8358 7.92793 27.8616 8.26028 27.8831C8.59262 27.9046 8.94784 27.9219 9.32951 27.9357C9.91912 27.957 10.8116 27.9695 11.8409 27.9743L15.1728 27.9675L18.328 27.9233L19.5276 27.8896L20.3092 27.8494C20.4769 27.8358 20.6411 27.8196 20.7995 27.8007C20.9579 27.7817 21.1142 27.7601 21.2663 27.7356C21.4184 27.711 21.5672 27.6835 21.7133 27.653C21.8577 27.6229 22.0014 27.5894 22.1442 27.5523C22.2856 27.5164 22.425 27.4756 22.5629 27.4323C22.7009 27.389 22.8374 27.3421 22.9731 27.2919C23.1096 27.2413 23.2449 27.1875 23.3788 27.1303C23.5136 27.0729 23.6482 27.0116 23.7833 26.9465C23.9908 26.8465 24.1578 26.7632 24.3045 26.6818C24.4424 26.6061 24.5753 26.5215 24.7022 26.4285C24.8274 26.3363 24.9519 26.2314 25.0955 26.0991C25.239 25.9669 25.4016 25.8076 25.603 25.6061C25.78 25.4293 25.9292 25.2755 26.058 25.1357C26.1867 24.9958 26.2951 24.87 26.3902 24.7487C26.4809 24.6336 26.5653 24.5138 26.6432 24.3897C26.7191 24.2686 26.7891 24.1428 26.8604 24.0034C26.9677 23.7935 27.0631 23.5991 27.1486 23.4115C27.2316 23.2308 27.3075 23.0468 27.3759 22.86C27.4434 22.6748 27.5018 22.4863 27.5509 22.2954C27.6015 22.0989 27.6451 21.8915 27.6828 21.664C27.7205 21.4366 27.7523 21.189 27.7799 20.9125C27.8076 20.6361 27.8311 20.3306 27.8517 19.9873L27.9064 18.8349L27.9534 17.4017L27.987 15.805L27.9999 14.1355L27.9699 10.8565L27.9298 9.38783L27.8751 8.12681L27.8069 7.14369C27.7822 6.8701 27.7555 6.65464 27.7271 6.50897C27.6957 6.34801 27.6607 6.18779 27.622 6.02844C27.5843 5.87338 27.5429 5.71926 27.4977 5.56621C27.4537 5.4171 27.406 5.26913 27.3544 5.12246C27.3035 4.97759 27.2495 4.83577 27.1929 4.69701C27.1364 4.55824 27.0753 4.4227 27.0116 4.29003C26.9479 4.15736 26.8811 4.02793 26.8111 3.90145C26.741 3.77497 26.668 3.65163 26.5917 3.53134C26.5153 3.41105 26.4359 3.29381 26.3531 3.17971C26.2708 3.06598 26.1849 2.95484 26.0956 2.84647C26.0068 2.7387 25.9146 2.63375 25.8192 2.5318C25.7239 2.42998 25.6254 2.3312 25.5238 2.23561C25.4222 2.13999 25.3175 2.04741 25.2095 1.95789C25.1011 1.86808 24.9899 1.78165 24.8761 1.69875C24.7612 1.61499 24.6437 1.53477 24.5238 1.45817C24.4023 1.38048 24.2785 1.30642 24.1526 1.23607C24.0245 1.16454 23.8944 1.0967 23.7624 1.03263C23.5434 0.926151 23.3408 0.831698 23.142 0.747917C22.9465 0.664769 22.7472 0.590921 22.5447 0.526624C22.3411 0.462487 22.1291 0.407501 21.8959 0.360049C21.6627 0.312597 21.4084 0.273039 21.1205 0.239401C20.8327 0.205763 20.5113 0.178584 20.1437 0.15598C19.7761 0.133375 19.3627 0.115613 18.8906 0.101261L17.2862 0.0653808L15.2556 0.0414308L12.6554 0.0254632L12.6545 0.0252853ZM14.0049 2.49224L17.7547 2.51359L19.1693 2.54086C19.5588 2.5518 19.8561 2.56463 20.0304 2.57943C20.2573 2.59854 20.4735 2.62249 20.6803 2.65119C20.8787 2.67859 21.0762 2.71267 21.2723 2.75336C21.4607 2.79283 21.6404 2.83768 21.8123 2.88827C21.9843 2.93886 22.1485 2.99555 22.3061 3.05826C22.4637 3.12096 22.6144 3.18994 22.7595 3.26547C22.9033 3.34042 23.0432 3.42291 23.1784 3.51259C23.3129 3.60184 23.4426 3.698 23.5686 3.80161C23.6945 3.90521 23.8166 4.01626 23.9358 4.13503C24.0617 4.26034 24.1777 4.38798 24.2847 4.51967C24.3914 4.65053 24.49 4.78769 24.5801 4.93041C24.6713 5.07515 24.7534 5.22539 24.8261 5.38026C24.9004 5.53813 24.9671 5.70498 25.027 5.88231C25.0869 6.05965 25.1403 6.24812 25.1876 6.44949C25.2371 6.66299 25.2786 6.87828 25.3119 7.09489C25.3478 7.32453 25.3785 7.56941 25.4045 7.83161C25.4305 8.0938 25.452 8.3734 25.4698 8.67255C25.484 8.91251 25.4963 9.22915 25.5068 9.60312L25.5331 10.8782L25.5532 14.0016L25.5303 17.122L25.5029 18.3935L25.4651 19.3182C25.4389 19.7512 25.4113 20.1152 25.3783 20.432C25.3617 20.5904 25.3438 20.737 25.3238 20.8745C25.3052 21.0044 25.2831 21.1338 25.2576 21.2625C25.2342 21.38 25.2072 21.4967 25.1764 21.6124C25.1469 21.7228 25.1137 21.8322 25.0769 21.9404C25.0398 22.0491 24.9994 22.1567 24.9559 22.263C24.9098 22.3752 24.8612 22.4864 24.8101 22.5964C24.7646 22.6946 24.7168 22.7902 24.6662 22.8832C24.6162 22.9753 24.5631 23.0656 24.5069 23.1541C24.4513 23.2417 24.393 23.3268 24.332 23.4093C24.2714 23.4914 24.2077 23.5714 24.1413 23.649C24.0751 23.7262 24.0061 23.801 23.9344 23.8732C23.8626 23.9454 23.7882 24.0151 23.711 24.0824C23.6339 24.1497 23.5539 24.2143 23.4711 24.2765C23.3883 24.3388 23.3026 24.3985 23.2141 24.4557C23.1255 24.513 23.0342 24.5679 22.9399 24.6202C22.8457 24.6726 22.7484 24.7227 22.6484 24.7703C22.5467 24.8187 22.4435 24.8639 22.339 24.9061C22.2311 24.9497 22.1219 24.9902 22.0116 25.0277C21.7874 25.1041 21.5508 25.1712 21.3018 25.229C21.0423 25.289 20.7804 25.338 20.5168 25.376C20.4154 25.3908 20.1824 25.4047 19.8488 25.4176L18.5772 25.4529L14.9721 25.4998L11.1987 25.5057L9.71684 25.4899L8.75462 25.4599L8.04508 25.4101C7.82478 25.3915 7.6199 25.3709 7.42794 25.3474C7.23598 25.324 7.05721 25.2979 6.88902 25.2685C6.72963 25.2409 6.57122 25.208 6.41405 25.1698C6.27074 25.135 6.1289 25.0943 5.98887 25.048C5.85387 25.0032 5.72479 24.9538 5.59921 24.8996C5.47362 24.8453 5.35163 24.7858 5.2308 24.7209C5.10998 24.6559 4.9904 24.5854 4.86949 24.5086C4.77826 24.4506 4.69009 24.3919 4.60523 24.3298C4.52037 24.2676 4.43838 24.2056 4.35945 24.1407C4.28051 24.0758 4.20471 24.0088 4.13161 23.9399C4.05899 23.8714 3.98885 23.8002 3.92135 23.7266C3.85407 23.6533 3.78976 23.5777 3.72804 23.4995C3.66609 23.421 3.60705 23.3402 3.55106 23.2573C3.49424 23.1732 3.44047 23.087 3.38987 22.999C3.33874 22.9102 3.29012 22.8183 3.24392 22.7236C3.19695 22.6271 3.15313 22.529 3.11251 22.4296C3.07125 22.3285 3.03214 22.2241 2.99536 22.1162C2.92181 21.9005 2.85722 21.6709 2.80107 21.426C2.74492 21.1811 2.69702 20.921 2.65647 20.6438C2.61593 20.3666 2.58328 20.0728 2.55726 19.7604C2.53807 19.5303 2.52282 19.172 2.51116 18.7199L2.48676 17.112L2.49573 13.0131L2.56632 9.09639L2.62014 7.71643L2.65064 7.2603C2.66123 7.13849 2.67217 7.04825 2.68338 6.99407C2.72034 6.81583 2.75757 6.64998 2.79605 6.4947C2.83199 6.34822 2.87199 6.20276 2.91598 6.05849C2.95778 5.92232 3.00182 5.79477 3.04891 5.67394C3.09432 5.55689 3.14494 5.44193 3.2006 5.3294C3.25496 5.21996 3.31335 5.11519 3.37677 5.0132C3.44019 4.91121 3.50863 4.81227 3.58326 4.71387C3.65789 4.61547 3.73827 4.51832 3.82573 4.41983C3.91318 4.32134 4.00764 4.22186 4.11008 4.11933C4.22946 3.99926 4.35378 3.8842 4.4827 3.77443C4.60443 3.67087 4.73137 3.57359 4.86303 3.48299C4.99247 3.39329 5.12523 3.31346 5.26345 3.24008C5.40168 3.1667 5.54538 3.10042 5.69653 3.04076C5.84768 2.98111 6.00645 2.92774 6.17464 2.8793C6.35133 2.82974 6.52999 2.78745 6.71015 2.75256C6.8996 2.71542 7.1008 2.68304 7.31564 2.65478C7.53047 2.62652 7.75903 2.60213 8.00337 2.58096C8.17381 2.56625 8.46749 2.55315 8.85419 2.54212L10.2616 2.51431L14.0055 2.49143L14.0049 2.49224Z" fill="white"/>
</g>
<defs>
<clipPath id="clip0_7_130">
<rect width="28" height="28" fill="white"/>
</clipPath>
</defs>
</svg>
