<svg width="93" height="15" viewBox="0 0 93 15" fill="none" xmlns="http://www.w3.org/2000/svg">
<path fill-rule="evenodd" clip-rule="evenodd" d="M13.0817 5.60834C13.1688 5.67623 13.2344 5.76794 13.2704 5.87236C13.2982 5.97676 13.2958 6.08689 13.2634 6.18996C13.2311 6.29303 13.1702 6.38481 13.0878 6.45464L10.7301 8.7381L11.301 11.9806C11.3213 12.0876 11.3107 12.1982 11.2702 12.2994C11.2297 12.4006 11.1612 12.488 11.0726 12.5515C10.9747 12.6224 10.8567 12.6604 10.7358 12.6599C10.6438 12.6602 10.5533 12.6366 10.4732 12.5914L7.56181 11.0672L4.6504 12.5914C4.55465 12.6456 4.44529 12.6709 4.33548 12.6643C4.22567 12.6578 4.12009 12.6197 4.03143 12.5545C3.94278 12.4894 3.87484 12.4001 3.83577 12.2972C3.79671 12.1944 3.78819 12.0825 3.81124 11.9749L4.3821 8.73239L2.02443 6.44893C1.95105 6.37571 1.899 6.28388 1.87386 6.18331C1.84871 6.08274 1.85143 5.97722 1.88172 5.87807C1.91481 5.77661 1.97567 5.68646 2.0574 5.61785C2.13913 5.54923 2.23846 5.5049 2.34412 5.48988L5.59233 5.01036L7.04803 2.06471C7.09478 1.96819 7.16776 1.88679 7.25863 1.82984C7.34949 1.77288 7.45457 1.74268 7.56181 1.74268C7.66905 1.74268 7.77412 1.77288 7.86499 1.82984C7.95585 1.88679 8.02884 1.96819 8.07558 2.06471L9.53128 5.01607L12.7795 5.48988C12.8896 5.4993 12.9945 5.54045 13.0817 5.60834Z" fill="#24306E"/>
<path fill-rule="evenodd" clip-rule="evenodd" d="M32.491 5.60834C32.5781 5.67623 32.6437 5.76794 32.6797 5.87236C32.7075 5.97676 32.7051 6.08689 32.6727 6.18996C32.6404 6.29303 32.5795 6.38481 32.4971 6.45464L30.1394 8.7381L30.7103 11.9806C30.7306 12.0876 30.72 12.1982 30.6795 12.2994C30.639 12.4006 30.5705 12.488 30.4819 12.5515C30.384 12.6224 30.266 12.6604 30.1451 12.6599C30.0531 12.6602 29.9626 12.6366 29.8825 12.5914L26.9711 11.0672L24.0597 12.5914C23.9639 12.6456 23.8546 12.6709 23.7448 12.6643C23.635 12.6578 23.5294 12.6197 23.4407 12.5545C23.3521 12.4894 23.2841 12.4001 23.2451 12.2972C23.206 12.1944 23.1975 12.0825 23.2205 11.9749L23.7914 8.73239L21.4337 6.44893C21.3604 6.37571 21.3083 6.28388 21.2832 6.18331C21.258 6.08274 21.2607 5.97722 21.291 5.87807C21.3241 5.77661 21.385 5.68646 21.4667 5.61785C21.5484 5.54923 21.6478 5.5049 21.7534 5.48988L25.0016 5.01036L26.4573 2.06471C26.5041 1.96819 26.5771 1.88679 26.6679 1.82984C26.7588 1.77288 26.8639 1.74268 26.9711 1.74268C27.0783 1.74268 27.1834 1.77288 27.2743 1.82984C27.3652 1.88679 27.4381 1.96819 27.4849 2.06471L28.9406 5.01607L32.1888 5.48988C32.2989 5.4993 32.4038 5.54045 32.491 5.60834Z" fill="#24306E"/>
<path fill-rule="evenodd" clip-rule="evenodd" d="M51.9003 5.60834C51.9874 5.67623 52.053 5.76794 52.089 5.87236C52.1168 5.97676 52.1144 6.08689 52.082 6.18996C52.0497 6.29303 51.9888 6.38481 51.9064 6.45464L49.5487 8.7381L50.1196 11.9806C50.1399 12.0876 50.1293 12.1982 50.0888 12.2994C50.0483 12.4006 49.9798 12.488 49.8912 12.5515C49.7933 12.6224 49.6753 12.6604 49.5544 12.6599C49.4624 12.6602 49.3719 12.6366 49.2918 12.5914L46.3804 11.0672L43.469 12.5914C43.3733 12.6456 43.2639 12.6709 43.1541 12.6643C43.0443 12.6578 42.9387 12.6197 42.85 12.5545C42.7614 12.4894 42.6934 12.4001 42.6544 12.2972C42.6153 12.1944 42.6068 12.0825 42.6298 11.9749L43.2007 8.73239L40.843 6.44893C40.7697 6.37571 40.7176 6.28388 40.6925 6.18331C40.6673 6.08274 40.67 5.97722 40.7003 5.87807C40.7334 5.77661 40.7943 5.68646 40.876 5.61785C40.9577 5.54923 41.0571 5.5049 41.1627 5.48988L44.4109 5.01036L45.8666 2.06471C45.9134 1.96819 45.9864 1.88679 46.0772 1.82984C46.1681 1.77288 46.2732 1.74268 46.3804 1.74268C46.4877 1.74268 46.5927 1.77288 46.6836 1.82984C46.7745 1.88679 46.8474 1.96819 46.8942 2.06471L48.3499 5.01607L51.5981 5.48988C51.7082 5.4993 51.8131 5.54045 51.9003 5.60834Z" fill="#24306E"/>
<path fill-rule="evenodd" clip-rule="evenodd" d="M71.3097 5.60834C71.3968 5.67623 71.4624 5.76794 71.4985 5.87236C71.5262 5.97676 71.5238 6.08689 71.4915 6.18996C71.4591 6.29303 71.3982 6.38481 71.3158 6.45464L68.9581 8.7381L69.529 11.9806C69.5494 12.0876 69.5387 12.1982 69.4982 12.2994C69.4578 12.4006 69.3892 12.488 69.3006 12.5515C69.2027 12.6224 69.0848 12.6604 68.9638 12.6599C68.8718 12.6602 68.7814 12.6366 68.7012 12.5914L65.7898 11.0672L62.8784 12.5914C62.7827 12.6456 62.6733 12.6709 62.5635 12.6643C62.4537 12.6578 62.3481 12.6197 62.2595 12.5545C62.1708 12.4894 62.1029 12.4001 62.0638 12.2972C62.0247 12.1944 62.0162 12.0825 62.0393 11.9749L62.6101 8.73239L60.2525 6.44893C60.1791 6.37571 60.127 6.28388 60.1019 6.18331C60.0767 6.08274 60.0795 5.97722 60.1097 5.87807C60.1428 5.77661 60.2037 5.68646 60.2854 5.61785C60.3672 5.54923 60.4665 5.5049 60.5721 5.48988L63.8204 5.01036L65.2761 2.06471C65.3228 1.96819 65.3958 1.88679 65.4867 1.82984C65.5775 1.77288 65.6826 1.74268 65.7898 1.74268C65.8971 1.74268 66.0021 1.77288 66.093 1.82984C66.1839 1.88679 66.2569 1.96819 66.3036 2.06471L67.7593 5.01607L71.0075 5.48988C71.1176 5.4993 71.2226 5.54045 71.3097 5.60834Z" fill="#24306E"/>
<path fill-rule="evenodd" clip-rule="evenodd" d="M90.719 5.60834C90.8061 5.67623 90.8717 5.76794 90.9078 5.87236C90.9355 5.97676 90.9331 6.08689 90.9008 6.18996C90.8684 6.29303 90.8075 6.38481 90.7251 6.45464L88.3674 8.7381L88.9383 11.9806C88.9587 12.0876 88.948 12.1982 88.9075 12.2994C88.8671 12.4006 88.7985 12.488 88.7099 12.5515C88.612 12.6224 88.4941 12.6604 88.3731 12.6599C88.2811 12.6602 88.1907 12.6366 88.1105 12.5914L85.1991 11.0672L82.2877 12.5914C82.192 12.6456 82.0826 12.6709 81.9728 12.6643C81.863 12.6578 81.7574 12.6197 81.6688 12.5545C81.5801 12.4894 81.5122 12.4001 81.4731 12.2972C81.434 12.1944 81.4255 12.0825 81.4486 11.9749L82.0194 8.73239L79.6618 6.44893C79.5884 6.37571 79.5363 6.28388 79.5112 6.18331C79.486 6.08274 79.4888 5.97722 79.519 5.87807C79.5521 5.77661 79.613 5.68646 79.6947 5.61785C79.7765 5.54923 79.8758 5.5049 79.9814 5.48988L83.2297 5.01036L84.6854 2.06471C84.7321 1.96819 84.8051 1.88679 84.896 1.82984C84.9868 1.77288 85.0919 1.74268 85.1991 1.74268C85.3064 1.74268 85.4114 1.77288 85.5023 1.82984C85.5932 1.88679 85.6662 1.96819 85.7129 2.06471L87.1686 5.01607L90.4168 5.48988C90.5269 5.4993 90.6319 5.54045 90.719 5.60834Z" fill="#24306E"/>
</svg>
